<svg width="152" height="24" viewBox="0 0 152 24" fill="none" xmlns="http://www.w3.org/2000/svg">
<path d="M17.7966 23C17.2541 23 16.5581 22.8248 15.6881 22.3096L12.6277 20.4857C12.3104 20.3002 11.6962 20.3002 11.3892 20.4857L8.31852 22.3096C6.50683 23.3916 5.44234 22.9588 4.96127 22.6084C4.49043 22.2581 3.75348 21.3616 4.23455 19.3007L4.96127 16.1372C5.04315 15.8075 4.87938 15.2407 4.63373 14.9934L2.09532 12.4379C0.826117 11.1602 0.928472 10.0679 1.10248 9.53209C1.27648 8.99626 1.8292 8.04825 3.58971 7.74942L6.85484 7.20328C7.16191 7.15176 7.60203 6.82202 7.7351 6.5438L9.54678 2.90632C10.3656 1.24731 11.4403 1 12.0033 1C12.5662 1 13.641 1.24731 14.4598 2.90632L16.2613 6.53349C16.4046 6.81172 16.8447 7.14146 17.1518 7.19298L20.4169 7.73912C22.1876 8.03795 22.7404 8.98596 22.9041 9.52179C23.0679 10.0576 23.1702 11.1499 21.9113 12.4276L19.3729 14.9934C19.1272 15.2407 18.9737 15.7972 19.0453 16.1372L19.7721 19.3007C20.2429 21.3616 19.5162 22.2581 19.0453 22.6084C18.7894 22.7939 18.38 23 17.7966 23Z" fill="#404EED"/>
<path d="M49.7966 23C49.2541 23 48.5581 22.8248 47.6881 22.3096L44.6277 20.4857C44.3104 20.3002 43.6962 20.3002 43.3892 20.4857L40.3185 22.3096C38.5068 23.3916 37.4423 22.9588 36.9613 22.6084C36.4904 22.2581 35.7535 21.3616 36.2345 19.3007L36.9613 16.1372C37.0432 15.8075 36.8794 15.2407 36.6337 14.9934L34.0953 12.4379C32.8261 11.1602 32.9285 10.0679 33.1025 9.53209C33.2765 8.99626 33.8292 8.04825 35.5897 7.74942L38.8548 7.20328C39.1619 7.15176 39.602 6.82202 39.7351 6.5438L41.5468 2.90632C42.3656 1.24731 43.4403 1 44.0033 1C44.5662 1 45.641 1.24731 46.4598 2.90632L48.2613 6.53349C48.4046 6.81172 48.8447 7.14146 49.1518 7.19298L52.4169 7.73912C54.1876 8.03795 54.7404 8.98596 54.9041 9.52179C55.0679 10.0576 55.1702 11.1499 53.9113 12.4276L51.3729 14.9934C51.1272 15.2407 50.9737 15.7972 51.0453 16.1372L51.7721 19.3007C52.2429 21.3616 51.5162 22.2581 51.0453 22.6084C50.7894 22.7939 50.38 23 49.7966 23Z" fill="#404EED"/>
<path d="M81.7966 23C81.2541 23 80.5581 22.8248 79.6881 22.3096L76.6277 20.4857C76.3104 20.3002 75.6962 20.3002 75.3892 20.4857L72.3185 22.3096C70.5068 23.3916 69.4423 22.9588 68.9613 22.6084C68.4904 22.2581 67.7535 21.3616 68.2345 19.3007L68.9613 16.1372C69.0432 15.8075 68.8794 15.2407 68.6337 14.9934L66.0953 12.4379C64.8261 11.1602 64.9285 10.0679 65.1025 9.53209C65.2765 8.99626 65.8292 8.04825 67.5897 7.74942L70.8548 7.20328C71.1619 7.15176 71.602 6.82202 71.7351 6.5438L73.5468 2.90632C74.3656 1.24731 75.4403 1 76.0033 1C76.5662 1 77.641 1.24731 78.4598 2.90632L80.2613 6.53349C80.4046 6.81172 80.8447 7.14146 81.1518 7.19298L84.4169 7.73912C86.1876 8.03795 86.7404 8.98596 86.9041 9.52179C87.0679 10.0576 87.1702 11.1499 85.9113 12.4276L83.3729 14.9934C83.1272 15.2407 82.9737 15.7972 83.0453 16.1372L83.7721 19.3007C84.2429 21.3616 83.5162 22.2581 83.0453 22.6084C82.7894 22.7939 82.38 23 81.7966 23Z" fill="#404EED"/>
<path d="M113.797 23C113.254 23 112.558 22.8248 111.688 22.3096L108.628 20.4857C108.31 20.3002 107.696 20.3002 107.389 20.4857L104.319 22.3096C102.507 23.3916 101.442 22.9588 100.961 22.6084C100.49 22.2581 99.7535 21.3616 100.235 19.3007L100.961 16.1372C101.043 15.8075 100.879 15.2407 100.634 14.9934L98.0953 12.4379C96.8261 11.1602 96.9285 10.0679 97.1025 9.53209C97.2765 8.99626 97.8292 8.04825 99.5897 7.74942L102.855 7.20328C103.162 7.15176 103.602 6.82202 103.735 6.5438L105.547 2.90632C106.366 1.24731 107.44 1 108.003 1C108.566 1 109.641 1.24731 110.46 2.90632L112.261 6.53349C112.405 6.81172 112.845 7.14146 113.152 7.19298L116.417 7.73912C118.188 8.03795 118.74 8.98596 118.904 9.52179C119.068 10.0576 119.17 11.1499 117.911 12.4276L115.373 14.9934C115.127 15.2407 114.974 15.7972 115.045 16.1372L115.772 19.3007C116.243 21.3616 115.516 22.2581 115.045 22.6084C114.789 22.7939 114.38 23 113.797 23Z" fill="#404EED"/>
<path d="M145.797 23C145.254 23 144.558 22.8248 143.688 22.3096L140.628 20.4857C140.31 20.3002 139.696 20.3002 139.389 20.4857L136.319 22.3096C134.507 23.3916 133.442 22.9588 132.961 22.6084C132.49 22.2581 131.753 21.3616 132.235 19.3007L132.961 16.1372C133.043 15.8075 132.879 15.2407 132.634 14.9934L130.095 12.4379C128.826 11.1602 128.928 10.0679 129.102 9.53209C129.276 8.99626 129.829 8.04825 131.59 7.74942L134.855 7.20328C135.162 7.15176 135.602 6.82202 135.735 6.5438L137.547 2.90632C138.366 1.24731 139.44 1 140.003 1C140.566 1 141.641 1.24731 142.46 2.90632L144.261 6.53349C144.405 6.81172 144.845 7.14146 145.152 7.19298L148.417 7.73912C150.188 8.03795 150.74 8.98596 150.904 9.52179C151.068 10.0576 151.17 11.1499 149.911 12.4276L147.373 14.9934C147.127 15.2407 146.974 15.7972 147.045 16.1372L147.772 19.3007C148.243 21.3616 147.516 22.2581 147.045 22.6084C146.789 22.7939 146.38 23 145.797 23Z" fill="#404EED"/>
</svg>
