<svg width="94" height="89" viewBox="0 0 94 89" fill="none" xmlns="http://www.w3.org/2000/svg">
<path d="M46.6849 0H46.684C33.4291 0 22.684 10.7452 22.684 24C22.684 37.2548 33.4291 48 46.684 48H46.6849C59.9397 48 70.6849 37.2548 70.6849 24C70.6849 10.7452 59.9397 0 46.6849 0Z" fill="white"/>
<path d="M44.7842 0.0488939C37.9874 0.595193 31.7423 4.01223 27.57 9.46449C27.1415 10.0268 26.1185 11.5425 26.1185 11.6175C26.1185 11.6443 27.4254 11.6657 29.1607 11.6657C30.8693 11.6657 32.4065 11.6925 32.6796 11.7193C34.0883 11.88 35.213 12.4102 36.1128 13.3368C36.927 14.1723 37.409 15.0774 37.7411 16.3789C38.0142 17.4393 38.0249 17.6429 38.0571 21.3598L38.0892 24.8679L39.1818 20.2351C39.7817 17.6857 40.3441 15.3666 40.4298 15.0828C40.9814 13.2243 41.8652 11.9657 42.9203 11.5533C43.1667 11.4569 43.3381 11.4301 43.7666 11.4301C44.2486 11.4247 44.3343 11.4408 44.6021 11.5747C45.1645 11.8478 45.5929 12.4477 45.8286 13.2832C46.1285 14.3383 46.1178 13.9955 46.15 23.1808C46.1767 31.0593 46.1875 31.6913 46.2732 31.9483C46.4713 32.5375 46.8945 32.7357 47.1997 32.3822C47.3926 32.1519 47.7032 31.477 47.9121 30.8397C48.0031 30.5612 48.8869 26.9888 49.8724 22.9077C50.8579 18.8212 51.7363 15.2434 51.822 14.9542C52.5343 12.5655 53.7823 11.3069 55.3355 11.4087C56.4281 11.4836 57.0601 12.3406 57.3815 14.183C57.4618 14.6329 57.4779 15.5327 57.5047 22.1364L57.5368 29.5811L57.6546 30.0309C57.9706 31.2307 58.683 31.9591 59.7006 32.1251C59.9309 32.1626 61.5806 32.1786 64.6549 32.1679L69.2611 32.1519L69.4378 31.6431C69.6842 30.9307 70.0109 29.715 70.1984 28.8312C70.7393 26.2176 70.8304 23.3897 70.4662 20.7011C69.5342 13.9045 65.6993 7.80416 59.9416 3.96937C56.5888 1.73598 52.5879 0.364892 48.4852 0.043538C47.6925 -0.0153762 45.5769 -0.0153762 44.7842 0.0488939Z" fill="black"/>
<path d="M43.4936 13.7379C43.1509 13.8879 42.7866 14.5038 42.4332 15.5375C42.326 15.8481 41.2763 20.1542 40.0979 25.1084C38.9196 30.0679 37.9127 34.2133 37.8538 34.3204C37.7949 34.4329 37.661 34.6097 37.5539 34.7114C37.3717 34.8882 37.3343 34.8989 37.0183 34.8989C36.6915 34.8989 36.6648 34.8882 36.4612 34.69C36.022 34.2615 36.0595 34.9899 36.0274 25.8743C35.9953 17.8941 35.9953 17.7494 35.8828 17.2781C35.5561 15.8642 34.8759 14.8948 33.8689 14.4181C32.9905 14.0057 32.7817 13.9843 28.4861 13.9843L24.8601 13.9789L24.5602 14.6913C22.8998 18.6224 22.3214 23.0089 22.9052 27.2829C23.8371 34.0794 27.672 40.1797 33.4297 44.0145C35.1704 45.1714 37.3557 46.2212 39.3749 46.8639C42.7759 47.9511 46.4127 48.2617 49.969 47.7797C57.2103 46.7835 63.6268 42.5095 67.376 36.1736C67.5742 35.8415 67.8527 35.3273 68.0026 35.0328L68.2704 34.4972H64.1035C61.5005 34.4972 59.7705 34.4758 59.4866 34.4383C57.6227 34.208 56.3534 33.0458 55.7963 31.0587C55.4964 29.9983 55.5071 30.2125 55.4696 22.0181C55.4482 16.78 55.4161 14.3753 55.3786 14.236C55.2233 13.6951 55.1429 13.6201 54.8644 13.7379C54.4627 13.9039 54.0182 14.6377 53.6968 15.6446C53.6111 15.9231 52.7327 19.4633 51.7472 23.5123C50.7617 27.556 49.8566 31.1605 49.7387 31.514C49.321 32.7619 48.8175 33.6617 48.2283 34.208C47.6874 34.7007 47.1839 34.8721 46.5144 34.7703C45.47 34.6097 44.7951 33.9134 44.4149 32.6173C44.1417 31.6747 44.1524 31.905 44.1149 22.8482C44.0828 13.8772 44.0882 14.1182 43.8418 13.8022C43.7186 13.6415 43.7132 13.6415 43.4936 13.7379Z" fill="black"/>
<path fill-rule="evenodd" clip-rule="evenodd" d="M54.9659 67.568C54.9659 68.6347 55.5319 69.168 56.6619 69.168C57.7929 69.168 58.3579 68.6347 58.3579 67.568C58.3579 66.5227 57.7929 66 56.6619 66C55.5319 66 54.9659 66.5227 54.9659 67.568ZM55.3819 87.216C55.3819 88.1547 55.8089 88.624 56.6619 88.624C57.5369 88.624 57.9739 88.1547 57.9739 87.216V74.128C57.9739 73.2107 57.5369 72.752 56.6619 72.752C55.8089 72.752 55.3819 73.2107 55.3819 74.128V87.216ZM50.5669 88.752C48.7329 88.752 47.3569 88.272 46.4389 87.312C45.5219 86.3307 45.0629 84.9227 45.0629 83.088V74.928H42.9189C42.1729 74.928 41.7989 74.5867 41.7989 73.904C41.7989 73.2427 42.1729 72.912 42.9189 72.912H45.0629V69.232C45.0629 68.3573 45.5009 67.92 46.3749 67.92C47.2289 67.92 47.6549 68.3573 47.6549 69.232V72.912H51.6869C52.4339 72.912 52.8069 73.2427 52.8069 73.904C52.8069 74.5867 52.4339 74.928 51.6869 74.928H47.6549V82.832C47.6549 84.048 47.9109 84.976 48.4229 85.616C48.9349 86.2347 49.7669 86.544 50.9189 86.544C51.3249 86.544 51.6659 86.5013 51.9429 86.416C52.2209 86.3307 52.4659 86.288 52.6789 86.288C52.8709 86.2667 53.0309 86.3307 53.1589 86.48C53.2869 86.6293 53.3509 86.8853 53.3509 87.248C53.3509 87.504 53.2979 87.7387 53.1909 87.952C53.1059 88.1653 52.9459 88.3147 52.7109 88.4C52.4549 88.4853 52.1139 88.56 51.6869 88.624C51.2819 88.7093 50.9089 88.752 50.5669 88.752ZM0 87.344C0 88.24 0.426699 88.688 1.28 88.688C2.1547 88.688 2.592 88.24 2.592 87.344V79.664C2.592 78.1707 2.9547 76.976 3.68 76.08C4.4267 75.184 5.44 74.736 6.72 74.736C7.872 74.736 8.6933 75.0773 9.184 75.76C9.696 76.4213 9.952 77.4667 9.952 78.896V87.344C9.952 88.24 10.3787 88.688 11.232 88.688C12.1067 88.688 12.544 88.24 12.544 87.344V79.664C12.544 78.1707 12.9173 76.976 13.664 76.08C14.4107 75.184 15.4133 74.736 16.672 74.736C17.824 74.736 18.6453 75.0773 19.136 75.76C19.648 76.4213 19.904 77.4667 19.904 78.896V87.344C19.904 88.24 20.3307 88.688 21.184 88.688C22.0587 88.688 22.496 88.24 22.496 87.344V78.768C22.496 74.672 20.768 72.624 17.312 72.624C16.1173 72.624 15.0613 72.912 14.144 73.488C13.2267 74.0427 12.5333 74.8107 12.064 75.792C11.3813 73.68 9.824 72.624 7.392 72.624C6.2827 72.624 5.312 72.88 4.48 73.392C3.648 73.8827 2.9973 74.5973 2.528 75.536V74C2.528 73.1253 2.1013 72.688 1.248 72.688C0.416001 72.688 0 73.1253 0 74V87.344ZM29.5502 87.76C30.6596 88.4213 31.9716 88.752 33.4862 88.752C34.9799 88.752 36.2809 88.4213 37.3899 87.76C38.5209 87.0987 39.3849 86.1707 39.9819 84.976C40.6009 83.76 40.9099 82.3307 40.9099 80.688C40.9099 79.0453 40.6009 77.6267 39.9819 76.432C39.3849 75.216 38.5209 74.2773 37.3899 73.616C36.2809 72.9547 34.9799 72.624 33.4862 72.624C31.9716 72.624 30.6596 72.9547 29.5502 73.616C28.4409 74.2773 27.5769 75.216 26.9582 76.432C26.3609 77.6267 26.0622 79.0453 26.0622 80.688C26.0622 82.3307 26.3609 83.76 26.9582 84.976C27.5769 86.1707 28.4409 87.0987 29.5502 87.76ZM36.9739 85.136C36.0999 86.16 34.9369 86.672 33.4862 86.672C32.0142 86.672 30.8409 86.16 29.9662 85.136C29.1129 84.0907 28.6862 82.608 28.6862 80.688C28.6862 78.7467 29.1129 77.264 29.9662 76.24C30.8409 75.216 32.0142 74.704 33.4862 74.704C34.9369 74.704 36.0999 75.216 36.9739 76.24C37.8489 77.264 38.2859 78.7467 38.2859 80.688C38.2859 82.608 37.8489 84.0907 36.9739 85.136ZM68.9639 88.752C67.4489 88.752 66.1369 88.4213 65.0279 87.76C63.9189 87.0987 63.0549 86.1707 62.4359 84.976C61.8389 83.76 61.5399 82.3307 61.5399 80.688C61.5399 79.0453 61.8389 77.6267 62.4359 76.432C63.0549 75.216 63.9189 74.2773 65.0279 73.616C66.1369 72.9547 67.4489 72.624 68.9639 72.624C70.4569 72.624 71.7589 72.9547 72.8679 73.616C73.9989 74.2773 74.8629 75.216 75.4599 76.432C76.0789 77.6267 76.3879 79.0453 76.3879 80.688C76.3879 82.3307 76.0789 83.76 75.4599 84.976C74.8629 86.1707 73.9989 87.0987 72.8679 87.76C71.7589 88.4213 70.4569 88.752 68.9639 88.752ZM68.9639 86.672C70.4149 86.672 71.5769 86.16 72.4519 85.136C73.3269 84.0907 73.7639 82.608 73.7639 80.688C73.7639 78.7467 73.3269 77.264 72.4519 76.24C71.5769 75.216 70.4149 74.704 68.9639 74.704C67.4919 74.704 66.3189 75.216 65.4439 76.24C64.5909 77.264 64.1639 78.7467 64.1639 80.688C64.1639 82.608 64.5909 84.0907 65.4439 85.136C66.3189 86.16 67.4919 86.672 68.9639 86.672ZM79.9609 87.344C79.9609 88.24 80.3879 88.688 81.2409 88.688C82.1159 88.688 82.5529 88.24 82.5529 87.344V79.6C82.5529 78.128 82.9689 76.9547 83.8009 76.08C84.6539 75.184 85.7959 74.736 87.2249 74.736C88.4619 74.736 89.3579 75.0773 89.9129 75.76C90.4889 76.4213 90.7769 77.4773 90.7769 78.928V87.344C90.7769 88.24 91.2139 88.688 92.0889 88.688C92.9419 88.688 93.3689 88.24 93.3689 87.344V78.768C93.3689 74.672 91.5239 72.624 87.8329 72.624C86.6599 72.624 85.6039 72.8693 84.6649 73.36C83.7259 73.8507 83.0009 74.5867 82.4889 75.568V74C82.4889 73.1253 82.0619 72.688 81.2089 72.688C80.3769 72.688 79.9609 73.1253 79.9609 74V87.344Z" fill="black"/>
</svg>
